# xmcd
#
# Track frame offsets:
#	150
#	11423
#	29390
#	52591
#	71135
#	90582
#	111272
#	130265
#	172204
#	199147
#	220326
#
# Disc length: 3377 seconds
#
# Revision: 1
# Processed by: cddbd v1.5.2PL0 Copyright (c) Steve Scherf et al.
# Submitted via: audiograbber 1.83.01
#
DISCID=990d2f0b
DTITLE=Jimi Hendrix - The last concert
DYEAR=1970
DGENRE=Classic Rock
TTITLE0=Opening credits
TTITLE1=Introduction: Message to love
TTITLE2=Fire
TTITLE3=Spanish castle magic
TTITLE4=All along the watchtower
TTITLE5=Foxy lady
TTITLE6=Purple haze
TTITLE7=Hey Joe
TTITLE8=Red house
TTITLE9=Stone free
TTITLE10=Star spangled banner
EXTD=
EXTT0=
EXTT1=
EXTT2=
EXTT3=
EXTT4=
EXTT5=
EXTT6=
EXTT7=
EXTT8=
EXTT9=
EXTT10=
PLAYORDER=
